<svg xmlns="http://www.w3.org/2000/svg" viewBox="0 0 64 64" role="img" aria-label="Soccer ball favicon">
  <circle cx="32" cy="32" r="30" fill="#ffffff" stroke="#111111" stroke-width="3"/>

  <polygon points="32,18 24,24 27,34 37,34 40,24" fill="#111111"/>

  <polygon points="24,24 15,26 11,35 18,42 27,34" fill="#111111"/>
  <polygon points="40,24 49,26 53,35 46,42 37,34" fill="#111111"/>
  <polygon points="18,42 23,51 32,54 41,51 46,42 37,34 27,34" fill="#111111"/>

  <path d="M24 24 L20 14" stroke="#111111" stroke-width="2.5" stroke-linecap="round"/>
  <path d="M40 24 L44 14" stroke="#111111" stroke-width="2.5" stroke-linecap="round"/>
  <path d="M15 26 L9 20" stroke="#111111" stroke-width="2.5" stroke-linecap="round"/>
  <path d="M49 26 L55 20" stroke="#111111" stroke-width="2.5" stroke-linecap="round"/>
  <path d="M23 51 L20 58" stroke="#111111" stroke-width="2.5" stroke-linecap="round"/>
  <path d="M41 51 L44 58" stroke="#111111" stroke-width="2.5" stroke-linecap="round"/>
</svg>
